<svg version="1.1" xmlns="http://www.w3.org/2000/svg" xmlns:xlink="http://www.w3.org/1999/xlink" width="259.4175" height="138.57844" viewBox="0,0,259.4175,138.57844"><defs><linearGradient x1="338.45258" y1="121.87011" x2="316.61454" y2="123.79917" gradientUnits="userSpaceOnUse" id="color-1"><stop offset="0" stop-color="#000000"/><stop offset="1" stop-color="#4e4e4e"/></linearGradient><linearGradient x1="339.34716" y1="131.99732" x2="317.50913" y2="133.92639" gradientUnits="userSpaceOnUse" id="color-2"><stop offset="0" stop-color="#000000"/><stop offset="1" stop-color="#4e4e4e"/></linearGradient><linearGradient x1="343.26749" y1="126.54791" x2="321.42945" y2="128.47696" gradientUnits="userSpaceOnUse" id="color-3"><stop offset="0" stop-color="#000000"/><stop offset="1" stop-color="#4e4e4e"/></linearGradient><linearGradient x1="302.20259" y1="117.13225" x2="270.93116" y2="119.89461" gradientUnits="userSpaceOnUse" id="color-4"><stop offset="0" stop-color="#000000"/><stop offset="1" stop-color="#4e4e4e"/></linearGradient><linearGradient x1="325.64268" y1="126.91605" x2="262.09306" y2="132.52969" gradientUnits="userSpaceOnUse" id="color-5"><stop offset="0" stop-color="#000000"/><stop offset="1" stop-color="#4e4e4e"/></linearGradient><linearGradient x1="288.37005" y1="113.44279" x2="270.50067" y2="115.02128" gradientUnits="userSpaceOnUse" id="color-6"><stop offset="0" stop-color="#005bff"/><stop offset="1" stop-color="#00ceff"/></linearGradient><linearGradient x1="277.07331" y1="140.42372" x2="271.42864" y2="140.92235" gradientUnits="userSpaceOnUse" id="color-7"><stop offset="0" stop-color="#000000"/><stop offset="1" stop-color="#4e4e4e"/></linearGradient><linearGradient x1="283.22423" y1="148.49714" x2="261.14355" y2="150.44764" gradientUnits="userSpaceOnUse" id="color-8"><stop offset="0" stop-color="#000000"/><stop offset="1" stop-color="#4e4e4e"/></linearGradient><linearGradient x1="303.52074" y1="101.80498" x2="265.76775" y2="105.13988" gradientUnits="userSpaceOnUse" id="color-9"><stop offset="0" stop-color="#000000"/><stop offset="1" stop-color="#4e4e4e"/></linearGradient><linearGradient x1="321.87464" y1="133.51681" x2="289.3368" y2="136.39103" gradientUnits="userSpaceOnUse" id="color-10"><stop offset="0" stop-color="#000000"/><stop offset="1" stop-color="#4e4e4e"/></linearGradient><linearGradient x1="265.27489" y1="150.0827" x2="259.63022" y2="150.58131" gradientUnits="userSpaceOnUse" id="color-11"><stop offset="0" stop-color="#000000"/><stop offset="1" stop-color="#4e4e4e"/></linearGradient><linearGradient x1="228.84529" y1="151.19693" x2="183.11679" y2="156.18729" gradientUnits="userSpaceOnUse" id="color-12"><stop offset="0" stop-color="#ffc08a"/><stop offset="1" stop-color="#ff8a8a"/></linearGradient><linearGradient x1="279.11687" y1="177.62883" x2="264.02614" y2="184.19729" gradientUnits="userSpaceOnUse" id="color-13"><stop offset="0" stop-color="#707070"/><stop offset="1" stop-color="#414141"/></linearGradient><linearGradient x1="105.10238" y1="159.782" x2="118.72038" y2="165.55934" gradientUnits="userSpaceOnUse" id="color-14"><stop offset="0" stop-color="#707070"/><stop offset="1" stop-color="#414141"/></linearGradient><linearGradient x1="157.65124" y1="166.58566" x2="146.04544" y2="164.61945" gradientUnits="userSpaceOnUse" id="color-15"><stop offset="0" stop-color="#707070"/><stop offset="1" stop-color="#414141"/></linearGradient><linearGradient x1="159.97019" y1="88.84635" x2="167.18444" y2="126.83114" gradientUnits="userSpaceOnUse" id="color-16"><stop offset="0" stop-color="#707070"/><stop offset="1" stop-color="#414141"/></linearGradient></defs><g transform="translate(-104.62777,-86.22295)"><g data-paper-data="{&quot;isPaintingLayer&quot;:true}" fill-rule="nonzero" stroke-linejoin="miter" stroke-miterlimit="10" stroke-dasharray="" stroke-dashoffset="0" style="mix-blend-mode: normal"><text transform="translate(118.67004,195.61282) scale(1.35322,1.35322)" font-size="40" xml:space="preserve" fill="#ffffff" fill-rule="nonzero" stroke="#000000" stroke-width="2" stroke-linecap="butt" stroke-linejoin="miter" stroke-miterlimit="10" stroke-dasharray="" stroke-dashoffset="0" font-family="Sans Serif" font-weight="normal" text-anchor="start" style="mix-blend-mode: normal"><tspan x="0" dy="0">Asteroids</tspan></text><path d="M124.5,150l131,1" fill="none" stroke="#ffffff" stroke-width="4" stroke-linecap="round"/><path d="M172.5,202l72,1" fill="none" stroke="#ffffff" stroke-width="4" stroke-linecap="round"/><path d="M290.5,201l60,1" fill="none" stroke="#ffffff" stroke-width="4" stroke-linecap="round"/><path d="M360.5,146l-84,-1" fill="none" stroke="#ffffff" stroke-width="4" stroke-linecap="round"/><g data-paper-data="{&quot;index&quot;:null}" stroke="#000000" stroke-linecap="butt"><g stroke-width="0.5"><path d="M347.41941,129.62303c-0.00552,0.00576 -0.01121,0.01144 -0.01707,0.01703c0.02627,0.0397 0.04601,0.08641 0.05684,0.14131c0.08752,0.44352 -0.5811,0.53481 -0.5811,0.53481c-0.05838,0.00737 -0.11534,0.01402 -0.17097,0.01998c-0.151,0.13617 -0.33685,0.27823 -0.55966,0.42913l-0.23112,0.112c0,0 -0.58436,0.25393 -0.92088,-0.12097c-0.20881,-0.23262 -0.06306,-0.41868 0.07763,-0.52639c-0.45155,-0.16011 -0.76742,-0.44453 -1.14537,-0.8114c-0.54717,0.15983 -1.13942,0.29453 -1.79201,0.42688l-0.28963,0.03174c0,0 -0.67316,0.05946 -0.71281,-0.38943c-0.03966,-0.4489 0.63351,-0.50835 0.63351,-0.50835l0.06938,0.00003c0.27363,-0.0547 0.64919,-0.17237 1.06327,-0.30769c-0.06227,-0.0607 -0.10128,-0.13395 -0.10844,-0.21509c-0.00232,-0.0263 -0.00122,-0.05236 0.00308,-0.07798c-0.11941,-0.21594 -0.19131,-0.46021 -0.22953,-0.72012l-0.42859,0.0387c0,0 -0.67316,0.05946 -0.71281,-0.38943c-0.03965,-0.44889 0.63351,-0.50835 0.63351,-0.50835l0.48607,-0.04179c0.00975,-0.13993 0.02414,-0.28028 0.04145,-0.41947l-0.08575,-0.02835c-0.19722,-0.06251 -0.33617,-0.19226 -0.35036,-0.35288c-0.02072,-0.23448 0.23189,-0.45079 0.57388,-0.50133c0.04315,-0.25055 0.08277,-0.48275 0.10534,-0.68414l-0.04736,-0.53622c-0.0219,-0.24791 0.26173,-0.4755 0.63351,-0.50835c0.35511,-0.03137 0.6622,0.12629 0.70809,0.35654l0.03597,0.16678c0.7077,-0.09963 1.80085,-0.23892 2.42832,-0.19007c0.36956,-0.07924 0.65014,0.12135 0.65014,0.12135c0.26439,0.19566 0.48001,0.41788 0.65242,0.65954c0.32986,0.00167 0.59816,0.16682 0.61817,0.3934c0.01213,0.1374 -0.06958,0.26855 -0.20813,0.36377l-0.01894,0.01317c0.01543,0.04581 0.02982,0.09199 0.04314,0.13848c0.2932,0.33576 0.44728,0.74319 0.50938,1.13785c0.05691,0.36169 0.13092,0.97604 -0.44003,1.26701c-0.06006,0.2231 -0.16623,0.4168 -0.33251,0.55968c-0.02324,0.05751 -0.0473,0.11439 -0.07213,0.1706c0.25156,0.18391 0.23923,0.42783 -0.56042,0.73037l-0.0075,0.00768z" fill="#ffe366"/><path d="M345.28293,124.16836c-0.11032,-0.4744 0.36408,-0.58474 0.36408,-0.58474l0.6949,-0.0789c0.14208,0.05379 0.28198,0.11463 0.41875,0.18206l0.20287,-0.21918c0.22223,0.19941 0.43756,0.40699 0.64542,0.62172c0.16449,-0.09602 0.35798,-0.05887 0.35798,-0.05887c1.00627,0.19324 2.52274,0.48445 3.52901,0.67768c0.26418,0.05073 0.43721,0.30601 0.38647,0.57019c-0.01073,0.05591 -0.03063,0.10773 -0.05783,0.15422l0.18667,0.03585c0.26418,0.05073 0.43721,0.30601 0.38647,0.57019c-0.03447,0.17951 -0.16339,0.31693 -0.32537,0.37066l-0.05146,0.01812l0.14906,0.40747c0.03168,0.08214 0.04149,0.17387 0.02366,0.2667c-0.04741,0.24691 -0.27352,0.41421 -0.51857,0.3936c-0.06569,0.27671 -0.38184,0.48578 -0.62037,0.65784c-0.13186,0.09511 -0.29063,0.13521 -0.45474,0.16497c-0.19154,0.12197 -0.42531,0.18684 -0.66517,0.18904c-0.09814,0.06172 -0.19363,0.12432 -0.28718,0.1874c-0.10085,0.22968 -0.19933,0.43931 -0.50751,0.35504c-0.61165,0.43698 -1.19319,0.85961 -1.975,1.13162l-0.38115,-0.89807c0,0 0.10195,-0.06911 0.23808,-0.08655c0.43022,-0.16799 0.79096,-0.39097 1.13741,-0.63343c-0.06625,-0.0278 -0.13048,-0.05855 -0.19184,-0.0918c-0.37422,-0.04699 -0.59635,-0.18235 -0.62404,0.20524l-0.59109,0.30092c0,0 -0.47834,-0.09185 -0.38648,-0.57018c0.0312,-0.16246 0.107,-0.25916 0.19348,-0.31601c0.2106,-0.36696 0.4009,-0.51588 0.67518,-0.57031c-0.00891,-0.04224 -0.01615,-0.08503 -0.02177,-0.12822c-0.09949,0.02702 -0.23105,0.03458 -0.35661,-0.04514c-0.09283,0.04932 -0.18706,0.09582 -0.28257,0.13921l-0.53331,0.15532c0,0 -0.46891,0.13176 -0.60067,-0.33715c-0.13175,-0.46892 0.33715,-0.60067 0.33715,-0.60067l0.39871,-0.10658c0.21442,-0.09433 0.42017,-0.2103 0.61524,-0.34142c0.01003,-0.10086 0.02607,-0.20128 0.04364,-0.29677c-0.04125,-0.01261 -0.08294,-0.03263 -0.1237,-0.06247c-0.33275,0.13801 -0.67738,0.15969 -1.15528,0.11547l-0.08255,-0.01414c0,0 -0.47833,-0.09186 -0.38647,-0.57019c0.09186,-0.47833 0.57019,-0.38647 0.57019,-0.38647l0.00247,0.00218c0.50152,0.06407 0.68188,0.04937 1.04077,-0.27684c-0.217,-0.14311 -0.45249,-0.26092 -0.69645,-0.34884l-0.13575,0.11428c0,0 -0.47442,0.11033 -0.58475,-0.36408zM348.23149,127.49699c0.00419,0.00943 0.00861,0.01867 0.01325,0.02775c0.01188,0.00283 0.02451,0.0062 0.03766,0.01019c-0.00733,-0.01391 -0.01452,-0.028 -0.0216,-0.04221c-0.00976,0.00154 -0.01953,0.00297 -0.02931,0.00428z" fill="#ffa166"/><path d="M358.0135,125.19947c0,0 0.31054,-0.02743 0.45669,0.21004c0.14304,0.03547 0.32377,0.13755 0.34917,0.42506c0.04285,0.48518 -0.44233,0.52804 -0.44233,0.52804l-0.31488,0.02214c-0.6789,0.13302 -1.06134,0.83001 -1.59944,1.2955c-0.08369,0.18854 -0.25285,0.36734 -0.53349,0.52712c-0.71172,0.40521 -1.91612,0.24477 -2.69866,0.27335c-1.09047,0.03982 -2.11797,0.29965 -3.19263,0.43932l-0.09719,0.00897c0,0 -0.48517,0.04287 -0.52804,-0.44231c-0.04285,-0.48518 0.44233,-0.52804 0.44233,-0.52804l0.05806,-0.00474c0.13406,-0.01721 0.26714,-0.03499 0.39943,-0.05306c0.01763,-0.03659 0.03974,-0.07075 0.06566,-0.1017l0.1818,-0.21704c-0.07693,-0.01509 -0.15074,-0.03031 -0.2171,-0.04123l-0.49997,-0.0386c-0.23693,-0.01407 -0.43416,-0.19985 -0.45567,-0.44337c-0.01474,-0.16688 0.0565,-0.32151 0.17706,-0.42016l0.39939,-0.3356l0.0478,0.05688c0.21986,-0.22078 0.44981,-0.34027 0.84145,-0.46689c-0.00448,-0.08066 -0.01219,-0.15795 -0.05939,-0.20724l-0.38074,-0.06855c-0.10303,-0.01616 -0.19639,-0.06497 -0.26802,-0.1363c-0.50861,0.02513 -1.02969,0.0046 -1.31804,0.03007l-0.04313,0.00381c0,0 -0.48518,0.04285 -0.52804,-0.44233c-0.04285,-0.48518 0.44233,-0.52804 0.44233,-0.52804l0.04313,-0.00381c0.35175,-0.03108 0.85722,-0.15514 1.32282,-0.19942c-0.02834,-0.46685 0.44378,-0.50856 0.44378,-0.50856c1.08128,-0.08087 3.11898,-0.99058 4.05797,0.05294c0.08148,0.09053 0.15177,0.20294 0.20768,0.32824c0.92103,-0.11371 1.94032,-0.17792 2.54232,0.61104c0.09549,0.12515 0.209,0.26425 0.29194,0.4103c0.13533,-0.01195 0.27067,-0.02391 0.406,-0.03586zM356.37792,126.47998c0.00695,0.00047 0.01386,0.00109 0.02073,0.00186c0.00842,-0.00864 0.01683,-0.01729 0.02521,-0.02594c-0.02888,0.0071 -0.05784,0.01393 -0.08684,0.02052l0.04091,0.00356z" fill="#ff6666"/></g><g stroke-width="0.5"><path d="M342.96157,122.59474c-0.00552,0.00576 -0.01121,0.01144 -0.01707,0.01703c0.02627,0.0397 0.04601,0.08641 0.05684,0.14131c0.08751,0.44352 -0.5811,0.53481 -0.5811,0.53481c-0.05838,0.00737 -0.11534,0.01402 -0.17097,0.01998c-0.15099,0.13617 -0.33685,0.27823 -0.55966,0.42913l-0.23112,0.112c0,0 -0.58436,0.25393 -0.92088,-0.12097c-0.2088,-0.23263 -0.06304,-0.41869 0.07764,-0.5264c-0.45155,-0.16012 -0.76742,-0.44454 -1.14537,-0.81141c-0.54715,0.15984 -1.13941,0.29455 -1.792,0.4269l-0.28964,0.03174c0,0 -0.67316,0.05946 -0.71281,-0.38943c-0.03965,-0.44889 0.63351,-0.50835 0.63351,-0.50835l0.06938,0.00003c0.27363,-0.0547 0.64919,-0.17237 1.06327,-0.30769c-0.06227,-0.0607 -0.10128,-0.13395 -0.10844,-0.21509c-0.00232,-0.0263 -0.00122,-0.05236 0.00308,-0.07798c-0.1194,-0.21595 -0.19132,-0.46021 -0.22953,-0.72013l-0.42859,0.0387c0,0 -0.67316,0.05946 -0.71281,-0.38943c-0.03965,-0.44889 0.63351,-0.50835 0.63351,-0.50835l0.48607,-0.04179c0.00975,-0.13993 0.02414,-0.28028 0.04145,-0.41947l-0.08575,-0.02835c-0.19722,-0.06251 -0.33617,-0.19226 -0.35036,-0.35288c-0.02071,-0.23449 0.23191,-0.45079 0.5739,-0.50133c0.04314,-0.25056 0.08276,-0.48275 0.10533,-0.68414l-0.04736,-0.53622c-0.0219,-0.24791 0.26173,-0.4755 0.63351,-0.50835c0.3551,-0.03136 0.6622,0.12629 0.70809,0.35654l0.03597,0.16678c0.7077,-0.09963 1.80085,-0.23892 2.42832,-0.19007c0.36956,-0.07924 0.65014,0.12134 0.65014,0.12134c0.26437,0.19566 0.48,0.41789 0.6524,0.65954c0.32985,0.00167 0.59816,0.16682 0.61817,0.3934c0.01213,0.1374 -0.06958,0.26855 -0.20813,0.36377l-0.01895,0.01315c0.01543,0.04582 0.02982,0.092 0.04315,0.13849c0.29318,0.33577 0.44728,0.74319 0.50938,1.13785c0.05692,0.36171 0.13092,0.97604 -0.44003,1.26701c-0.06006,0.2231 -0.16623,0.4168 -0.33251,0.55968c-0.02324,0.05751 -0.0473,0.11439 -0.07213,0.1706c0.25157,0.18391 0.23924,0.42783 -0.56041,0.73036l-0.00752,0.00767z" fill="#ffe366"/><path d="M340.82508,117.14007c-0.11032,-0.4744 0.36408,-0.58474 0.36408,-0.58474l0.6949,-0.0789c0.14208,0.05379 0.28198,0.11463 0.41875,0.18206l0.20289,-0.21919c0.22223,0.19941 0.43756,0.40699 0.64542,0.62172c0.16449,-0.09603 0.35799,-0.05887 0.35799,-0.05887c1.00627,0.19324 2.52274,0.48445 3.52901,0.67768c0.26418,0.05072 0.43721,0.306 0.38648,0.57018c-0.01073,0.05591 -0.03063,0.10773 -0.05783,0.15422l0.18666,0.03584c0.26418,0.05073 0.43721,0.30601 0.38647,0.57019c-0.03447,0.17951 -0.16339,0.31694 -0.32537,0.37067l-0.05146,0.01812l0.14906,0.40747c0.03168,0.08214 0.04148,0.17388 0.02365,0.26671c-0.04741,0.24691 -0.27353,0.41419 -0.51857,0.39358c-0.06569,0.27672 -0.38183,0.48578 -0.62036,0.65784c-0.13188,0.09512 -0.29064,0.13521 -0.45475,0.16497c-0.19154,0.12197 -0.42531,0.18684 -0.66517,0.18904c-0.09815,0.06171 -0.19364,0.12432 -0.28719,0.18739c-0.10085,0.22968 -0.19933,0.43931 -0.50751,0.35504c-0.61164,0.43698 -1.19318,0.85961 -1.97499,1.13163l-0.38115,-0.89807c0,0 0.10195,-0.06911 0.23808,-0.08655c0.43021,-0.16799 0.79095,-0.39098 1.1374,-0.63343c-0.06624,-0.02779 -0.13047,-0.05855 -0.19183,-0.09179c-0.37422,-0.04699 -0.59635,-0.18235 -0.62404,0.20524l-0.59109,0.30092c0,0 -0.47833,-0.09184 -0.38647,-0.57017c0.0312,-0.16246 0.107,-0.25916 0.19348,-0.31601c0.2106,-0.36697 0.4009,-0.5159 0.67517,-0.57033c-0.00891,-0.04225 -0.01615,-0.08503 -0.02177,-0.12822c-0.09949,0.02702 -0.23105,0.03458 -0.35661,-0.04514c-0.09283,0.04932 -0.18706,0.09582 -0.28257,0.13921l-0.5333,0.15531c0,0 -0.46891,0.13176 -0.60067,-0.33715c-0.13177,-0.46892 0.33714,-0.60067 0.33714,-0.60067l0.39871,-0.10657c0.21442,-0.09433 0.42017,-0.2103 0.61524,-0.34142c0.01003,-0.10086 0.02607,-0.20128 0.04364,-0.29677c-0.04125,-0.01261 -0.08294,-0.03263 -0.1237,-0.06247c-0.33275,0.13801 -0.67738,0.15969 -1.15528,0.11547l-0.08255,-0.01414c0,0 -0.47834,-0.09185 -0.38648,-0.57018c0.09186,-0.47833 0.57019,-0.38647 0.57019,-0.38647l0.00247,0.0022c0.50151,0.06406 0.68187,0.04936 1.04076,-0.27684c-0.21701,-0.14311 -0.45249,-0.2609 -0.69645,-0.34883l-0.13575,0.11428c0,0 -0.4744,0.11032 -0.58474,-0.36408zM343.77365,120.46869c0.00419,0.00941 0.00861,0.01867 0.01325,0.02775c0.01188,0.00284 0.02451,0.0062 0.03766,0.01019c-0.00733,-0.01391 -0.01452,-0.028 -0.0216,-0.04221c-0.00976,0.00154 -0.01953,0.00297 -0.02931,0.00428z" fill="#ffa166"/><path d="M353.55567,118.1712c0,0 0.31054,-0.02743 0.45669,0.21004c0.14304,0.03547 0.32377,0.13755 0.34917,0.42506c0.04285,0.48518 -0.44233,0.52804 -0.44233,0.52804l-0.31488,0.02214c-0.6789,0.13301 -1.06134,0.83 -1.59944,1.29549c-0.08369,0.18854 -0.25285,0.36734 -0.53349,0.52712c-0.71172,0.40521 -1.91612,0.24477 -2.69866,0.27335c-1.09047,0.03982 -2.11797,0.29965 -3.19263,0.43932l-0.09719,0.00897c0,0 -0.48518,0.04285 -0.52804,-0.44233c-0.04285,-0.48518 0.44233,-0.52804 0.44233,-0.52804l0.05806,-0.00474c0.13406,-0.01722 0.26713,-0.03501 0.39943,-0.05308c0.01763,-0.03658 0.03973,-0.07074 0.06566,-0.10169l0.1818,-0.21704c-0.07693,-0.01509 -0.15074,-0.03031 -0.2171,-0.04123l-0.49997,-0.0386c-0.23693,-0.01407 -0.43417,-0.19985 -0.45568,-0.44338c-0.01474,-0.16688 0.0565,-0.32151 0.17706,-0.42016l0.39939,-0.3356l0.0478,0.05688c0.21986,-0.22078 0.44981,-0.34027 0.84145,-0.46689c-0.00446,-0.08066 -0.01217,-0.15796 -0.05937,-0.20724l-0.38074,-0.06855c-0.10303,-0.01617 -0.19638,-0.06498 -0.26801,-0.13631c-0.50861,0.02514 -1.0297,0.00461 -1.31805,0.03007l-0.04313,0.00381c0,0 -0.48518,0.04285 -0.52804,-0.44233c-0.04285,-0.48518 0.44233,-0.52804 0.44233,-0.52804l0.04313,-0.00381c0.35175,-0.03108 0.85722,-0.15514 1.32282,-0.19942c-0.02834,-0.46685 0.44378,-0.50856 0.44378,-0.50856c1.08128,-0.08087 3.11898,-0.99058 4.05797,0.05294c0.08147,0.09054 0.15177,0.20294 0.20768,0.32824c0.92103,-0.11371 1.94031,-0.17792 2.54231,0.61105c0.09548,0.12515 0.20899,0.26426 0.29193,0.41031c0.13533,-0.01195 0.27067,-0.02391 0.406,-0.03586zM351.92008,119.45168c0.00695,0.00047 0.01386,0.00109 0.02073,0.00186c0.00842,-0.00864 0.01683,-0.01729 0.02521,-0.02594c-0.02888,0.00711 -0.05785,0.01393 -0.08686,0.02052l0.04091,0.00356z" fill="#ff6666"/></g><g stroke-width="0.5"><path d="M344.9521,137.72827c-0.00552,0.00576 -0.01121,0.01144 -0.01707,0.01703c0.02626,0.03969 0.04601,0.08641 0.05684,0.14131c0.08752,0.44352 -0.5811,0.53481 -0.5811,0.53481c-0.05838,0.00737 -0.11534,0.01402 -0.17097,0.01998c-0.15099,0.13617 -0.33685,0.27823 -0.55966,0.42913l-0.23112,0.112c0,0 -0.58436,0.25393 -0.92088,-0.12097c-0.2088,-0.23263 -0.06304,-0.41869 0.07764,-0.5264c-0.45155,-0.16011 -0.76742,-0.44453 -1.14537,-0.8114c-0.54716,0.15983 -1.13941,0.29454 -1.792,0.42689l-0.28964,0.03174c0,0 -0.67316,0.05946 -0.71281,-0.38943c-0.03965,-0.44889 0.63351,-0.50835 0.63351,-0.50835l0.06938,0.00003c0.27363,-0.0547 0.64919,-0.17237 1.06327,-0.30769c-0.06227,-0.0607 -0.10128,-0.13395 -0.10844,-0.21509c-0.00232,-0.0263 -0.00122,-0.05236 0.00308,-0.07798c-0.1194,-0.21595 -0.19132,-0.46021 -0.22953,-0.72013l-0.42859,0.0387c0,0 -0.67316,0.05946 -0.71281,-0.38943c-0.03965,-0.44889 0.63351,-0.50835 0.63351,-0.50835l0.48607,-0.04179c0.00975,-0.13993 0.02414,-0.28028 0.04145,-0.41947l-0.08575,-0.02835c-0.19722,-0.06251 -0.33617,-0.19226 -0.35036,-0.35288c-0.02071,-0.23449 0.23191,-0.45079 0.5739,-0.50133c0.04314,-0.25056 0.08276,-0.48275 0.10533,-0.68414l-0.04736,-0.53622c-0.0219,-0.24791 0.26173,-0.4755 0.63351,-0.50835c0.3551,-0.03136 0.6622,0.12629 0.70809,0.35654l0.03597,0.16678c0.7077,-0.09963 1.80085,-0.23892 2.42832,-0.19007c0.36956,-0.07924 0.65014,0.12134 0.65014,0.12134c0.26438,0.19566 0.48001,0.41789 0.65241,0.65955c0.32986,0.00167 0.59816,0.16682 0.61817,0.3934c0.01213,0.1374 -0.06958,0.26855 -0.20813,0.36377l-0.01893,0.01317c0.01543,0.04582 0.0298,0.09199 0.04313,0.13848c0.29318,0.33577 0.44728,0.74319 0.50938,1.13785c0.05692,0.36171 0.13092,0.97604 -0.44003,1.26701c-0.06006,0.2231 -0.16623,0.4168 -0.33251,0.55968c-0.02324,0.05751 -0.0473,0.11439 -0.07213,0.1706c0.25157,0.18391 0.23924,0.42783 -0.56041,0.73036l-0.00751,0.00768z" fill="#ffe366"/><path d="M342.81561,132.27359c-0.11032,-0.4744 0.36408,-0.58474 0.36408,-0.58474l0.6949,-0.0789c0.14208,0.05379 0.28198,0.11463 0.41875,0.18206l0.20289,-0.21919c0.22223,0.19941 0.43756,0.40699 0.64542,0.62172c0.16449,-0.09603 0.35799,-0.05887 0.35799,-0.05887c1.00627,0.19324 2.52274,0.48445 3.52901,0.67768c0.26418,0.05073 0.43721,0.30601 0.38647,0.57019c-0.01073,0.0559 -0.03063,0.10773 -0.05783,0.15422l0.18666,0.03584c0.26418,0.05073 0.43721,0.30601 0.38647,0.57019c-0.03447,0.17951 -0.16339,0.31694 -0.32537,0.37067l-0.05146,0.01812l0.14906,0.40747c0.03168,0.08214 0.04148,0.17388 0.02365,0.26671c-0.04741,0.24691 -0.27352,0.41421 -0.51857,0.3936c-0.06569,0.27672 -0.38183,0.48578 -0.62036,0.65784c-0.13187,0.09511 -0.29064,0.13521 -0.45475,0.16497c-0.19154,0.12197 -0.42531,0.18684 -0.66517,0.18904c-0.09815,0.06171 -0.19364,0.12432 -0.28719,0.18739c-0.10085,0.22968 -0.19933,0.43931 -0.50751,0.35504c-0.61164,0.43698 -1.19318,0.85961 -1.97499,1.13163l-0.38115,-0.89807c0,0 0.10195,-0.06911 0.23808,-0.08655c0.43021,-0.16799 0.79095,-0.39098 1.1374,-0.63343c-0.06624,-0.02779 -0.13047,-0.05855 -0.19183,-0.09179c-0.37422,-0.04699 -0.59635,-0.18235 -0.62404,0.20524l-0.59109,0.30092c0,0 -0.47833,-0.09186 -0.38647,-0.57019c0.0312,-0.16246 0.107,-0.25916 0.19348,-0.31601c0.2106,-0.36697 0.4009,-0.5159 0.67517,-0.57033c-0.00891,-0.04225 -0.01615,-0.08503 -0.02177,-0.12822c-0.09949,0.02702 -0.23105,0.03458 -0.35661,-0.04514c-0.09283,0.04932 -0.18706,0.09582 -0.28257,0.13921l-0.53331,0.15532c0,0 -0.46891,0.13176 -0.60067,-0.33715c-0.13176,-0.4689 0.33714,-0.60067 0.33714,-0.60067l0.39871,-0.10657c0.21442,-0.09433 0.42017,-0.2103 0.61524,-0.34142c0.01003,-0.10086 0.02607,-0.20128 0.04364,-0.29677c-0.04124,-0.0126 -0.08293,-0.03263 -0.12369,-0.06247c-0.33275,0.13801 -0.67738,0.15969 -1.15528,0.11547l-0.08255,-0.01414c0,0 -0.47834,-0.09185 -0.38648,-0.57018c0.09186,-0.47833 0.57019,-0.38647 0.57019,-0.38647l0.00247,0.0022c0.50152,0.06407 0.68188,0.04937 1.04077,-0.27684c-0.217,-0.1431 -0.45248,-0.26091 -0.69644,-0.34884l-0.13575,0.11428c0,0 -0.4744,0.11032 -0.58474,-0.36408zM345.76419,135.60223c0.00419,0.00943 0.00861,0.01867 0.01325,0.02775c0.01188,0.00283 0.02451,0.0062 0.03766,0.01019c-0.00733,-0.01391 -0.01452,-0.028 -0.0216,-0.04221c-0.00976,0.00153 -0.01953,0.00297 -0.02931,0.00428z" fill="#ffa166"/><path d="M355.5462,133.30475c0,0 0.31054,-0.02743 0.45669,0.21004c0.14304,0.03547 0.32377,0.13755 0.34917,0.42506c0.04285,0.48518 -0.44233,0.52804 -0.44233,0.52804l-0.31488,0.02214c-0.6789,0.13301 -1.06134,0.83 -1.59944,1.29549c-0.08369,0.18854 -0.25285,0.36734 -0.53349,0.52712c-0.71172,0.40521 -1.91612,0.24477 -2.69866,0.27335c-1.09047,0.03982 -2.11797,0.29965 -3.19263,0.43932l-0.09719,0.00897c0,0 -0.48518,0.04285 -0.52804,-0.44233c-0.04285,-0.48518 0.44233,-0.52804 0.44233,-0.52804l0.05806,-0.00474c0.13406,-0.01722 0.26713,-0.03501 0.39943,-0.05308c0.01763,-0.03658 0.03973,-0.07074 0.06566,-0.10169l0.1818,-0.21704c-0.07693,-0.01509 -0.15074,-0.03031 -0.2171,-0.04123l-0.49997,-0.0386c-0.23693,-0.01407 -0.43417,-0.19985 -0.45568,-0.44338c-0.01474,-0.16688 0.0565,-0.32151 0.17706,-0.42016l0.39939,-0.3356l0.0478,0.05688c0.21986,-0.22078 0.44981,-0.34027 0.84145,-0.46689c-0.00446,-0.08066 -0.01217,-0.15796 -0.05937,-0.20724l-0.38074,-0.06855c-0.10303,-0.01617 -0.19638,-0.06498 -0.26801,-0.13631c-0.50861,0.02514 -1.0297,0.00461 -1.31805,0.03007l-0.04313,0.00381c0,0 -0.48518,0.04285 -0.52804,-0.44233c-0.04285,-0.48518 0.44233,-0.52804 0.44233,-0.52804l0.04313,-0.00381c0.35175,-0.03108 0.85722,-0.15514 1.32282,-0.19942c-0.02834,-0.46685 0.44378,-0.50856 0.44378,-0.50856c1.08128,-0.08087 3.11898,-0.99058 4.05797,0.05294c0.08148,0.09053 0.15177,0.20294 0.20768,0.32824c0.92103,-0.11371 1.94031,-0.17792 2.54231,0.61105c0.09548,0.12514 0.209,0.26425 0.29194,0.4103c0.13533,-0.01195 0.27067,-0.02391 0.406,-0.03586zM353.91063,134.58522c0.00695,0.00047 0.01386,0.00109 0.02073,0.00186c0.00842,-0.00864 0.01683,-0.01729 0.02521,-0.02594c-0.02888,0.00711 -0.05785,0.01393 -0.08686,0.02052l0.04091,0.00356z" fill="#ff6666"/></g><path d="M336.25156,125.80203l-19.30942,1.7057l-0.65518,-7.41713l19.2328,-1.69892l2.48343,-1.60895l0.89458,10.12723z" fill="url(#color-1)" stroke-width="2"/><path d="M337.14616,135.92924l-19.30942,1.7057l-0.65519,-7.41712l19.2328,-1.69892l2.48343,-1.60895l0.89458,10.12723z" fill="url(#color-2)" stroke-width="2"/><path d="M341.06648,130.47983l-19.30942,1.7057l-0.65519,-7.41712l19.2328,-1.69892l2.48343,-1.60895l0.89458,10.12723z" fill="url(#color-3)" stroke-width="2"/><path d="M272.1302,133.46846l-2.39809,-27.14773l31.27143,-2.76235l2.39809,27.14773z" fill="url(#color-4)" stroke-width="2"/><path d="M262.92785,141.97985l-1.66955,-18.90032l63.54962,-5.61364l1.66955,18.90032z" fill="url(#color-5)" stroke-width="2"/><path d="M270.96612,120.29046l-0.9309,-10.53836l17.86939,-1.57849l0.9309,10.53836z" fill="url(#color-6)" stroke-width="1.5"/><path d="M271.87592,145.98597l-0.89458,-10.12723l5.64468,-0.49862l0.89458,10.12723z" fill="url(#color-7)" stroke-width="2"/><path d="M261.64216,156.09232l-0.99725,-11.28937l22.08069,-1.95049l0.99725,11.28937z" fill="url(#color-8)" stroke-width="2"/><path d="M266.00093,107.77961l-0.46636,-5.27944l37.75299,-3.3349l0.46636,5.27944z" fill="url(#color-9)" stroke-width="2"/><path d="M289.90386,142.81047l-1.13412,-12.8389l32.53784,-2.87422l1.13412,12.8389z" fill="url(#color-10)" stroke-width="2"/><path d="M260.24926,157.58937l-1.23811,-14.01613l5.64468,-0.49862l1.23811,14.01613z" fill="url(#color-11)" stroke-width="2"/></g><path d="M229.21772,154.6095c0.16462,1.50844 -1.58771,3.51013 -4.00995,3.77447c-9.35673,1.0211 -32.18372,3.51221 -37.39337,4.08074c-2.02085,0.22054 -4.12859,-1.06338 -4.33353,-2.94132c-0.256,-2.34581 -0.57701,-5.28739 -0.72602,-6.65281c-0.15608,-1.43025 1.48936,-3.5964 3.44205,-3.8095c5.03955,-0.54997 27.62722,-3.01496 37.39337,-4.08074c2.78133,-0.30353 4.7089,1.21219 4.85135,2.51754c0.1665,1.52566 0.49745,4.55834 0.77609,7.11163z" data-paper-data="{&quot;index&quot;:null}" fill="url(#color-12)" stroke="#000000" stroke-width="4" stroke-linecap="butt"/><path d="M275.38269,190.27429c-0.68877,0.2998 -3.72757,2.27259 -4.46157,2.30974c-3.50032,0.17719 -4.96797,-4.31354 -6.84572,-8.6276c-1.11456,-2.56065 -2.91739,-5.13975 -2.39882,-7.38972c0.53831,-2.33555 3.45648,-4.31016 5.48023,-5.19103c0.5036,-0.2192 0.94653,-0.36034 1.35073,-0.42969c0.84381,-0.14477 1.47822,-0.7603 2.184,-0.33623c0.31513,0.18935 0.677,1.21337 1.02216,1.49971c0.30426,0.2524 1.11357,-0.87321 1.46714,-0.55285c0.17138,0.15528 -0.13648,1.73186 0.05072,1.9019c0.26679,0.24231 1.25075,-0.28966 1.76871,-0.20138c0.68719,0.11713 0.95482,0.84706 1.55573,1.24352c0.46446,0.30644 0.26174,1.12865 0.54071,1.64692c0.35834,0.66572 1.15215,1.05145 1.36738,1.54595c0.09026,0.20736 -1.25392,1.11594 -1.10526,1.55884c0.15361,0.45762 1.79925,0.4488 1.83615,0.59891c0.109,0.44348 1.35014,0.78268 1.40976,1.22102c0.07734,0.56859 -1.04347,1.23368 -1.04676,1.78358c-0.00305,0.50996 0.22737,1.13946 -0.11025,1.49392c-0.65213,0.68468 -1.09327,1.33093 -1.42098,1.9309c-0.23786,0.43547 0.43404,1.87889 0.27838,2.26258c-0.26745,0.65928 -1.31863,0.20534 -1.64279,0.68759c-0.28671,0.42653 -0.66962,0.77785 -1.27968,1.04339z" fill="url(#color-13)" stroke="#000000" stroke-width="2" stroke-linecap="butt"/><path d="M115.65817,154.39479c0.62155,0.26369 3.78771,1.02492 4.26598,1.48057c2.28076,2.1729 0.26028,5.9078 -1.39131,9.80084c-0.98032,2.31075 -1.54691,5.08173 -3.33487,6.13535c-1.85596,1.0937 -4.9487,0.41225 -6.77494,-0.36251c-0.45445,-0.1928 -0.82048,-0.39432 -1.11573,-0.61499c-0.61637,-0.46069 -1.41018,-0.49362 -1.57023,-1.21617c-0.07146,-0.32262 0.37244,-1.19203 0.34565,-1.59423c-0.02362,-0.35454 -1.25823,-0.18599 -1.26805,-0.61471c-0.00476,-0.20781 1.21375,-0.98229 1.20882,-1.20955c-0.00702,-0.32386 -0.96258,-0.63642 -1.22541,-1.02878c-0.34871,-0.52056 -0.03828,-1.14659 -0.15146,-1.78368c-0.08748,-0.49242 0.57407,-0.86883 0.73947,-1.37134c0.21245,-0.64547 -0.02706,-1.4017 0.16226,-1.84795c0.07939,-0.18712 1.50334,0.12737 1.70018,-0.24354c0.20339,-0.38324 -0.82032,-1.45089 -0.74526,-1.5678c0.22176,-0.3454 -0.32479,-1.36456 -0.07584,-1.67458c0.32293,-0.40215 1.44994,-0.0827 1.81055,-0.4207c0.33442,-0.31347 0.60238,-0.85311 1.04236,-0.85222c0.84986,0.00172 1.54415,-0.11038 2.1381,-0.26782c0.4311,-0.11427 0.95671,-1.44527 1.30319,-1.58112c0.59535,-0.23341 0.94957,0.73284 1.46456,0.64591c0.45549,-0.07689 0.92144,-0.04452 1.47196,0.18904z" fill="url(#color-14)" stroke="#000000" stroke-width="2" stroke-linecap="butt"/><path d="M150.47088,172.69898c-0.52971,-0.08974 -3.12092,-0.09633 -3.57504,-0.36105c-2.16559,-1.2624 -1.28882,-4.52567 -0.72673,-7.84347c0.33363,-1.96931 0.26228,-4.21877 1.45252,-5.36351c1.23552,-1.18828 3.7552,-1.22995 5.3116,-0.96627c0.3873,0.06561 0.70775,0.15426 0.97694,0.27076c0.56195,0.2432 1.18255,0.1226 1.43944,0.65251c0.1147,0.23661 -0.06894,0.99137 0.02583,1.2978c0.08354,0.27012 1.0083,-0.08759 1.09481,0.2425c0.04193,0.16 -0.75884,0.98384 -0.7132,1.15887c0.06504,0.24943 0.86232,0.31553 1.138,0.57091c0.36576,0.33882 0.24066,0.8806 0.44553,1.35298c0.15835,0.36511 -0.28452,0.77827 -0.32007,1.19773c-0.04567,0.5388 0.27893,1.08016 0.2145,1.46047c-0.02702,0.15947 -1.18727,0.17808 -1.27139,0.50146c-0.08692,0.33412 0.90209,0.97224 0.8655,1.07657c-0.10811,0.30821 0.50259,0.99661 0.36692,1.28244c-0.17598,0.37076 -1.10726,0.33088 -1.32422,0.65892c-0.2012,0.30422 -0.30932,0.77131 -0.6501,0.8516c-0.65824,0.15508 -1.1751,0.36965 -1.60594,0.60085c-0.31271,0.1678 -0.47465,1.29495 -0.71788,1.46388c-0.41793,0.29027 -0.87,-0.39257 -1.25268,-0.23049c-0.33847,0.14335 -0.70515,0.20405 -1.17433,0.12456z" fill="url(#color-15)" stroke="#000000" stroke-width="2" stroke-linecap="butt"/><text transform="translate(127.4458,220.24004) rotate(-1.37264) scale(0.37863,0.37863)" font-size="40" xml:space="preserve" fill="#ffe066" fill-rule="nonzero" stroke="#000000" stroke-width="1" stroke-linecap="butt" stroke-linejoin="miter" stroke-miterlimit="10" stroke-dasharray="" stroke-dashoffset="0" font-family="Sans Serif" font-weight="normal" text-anchor="start" style="mix-blend-mode: normal"><tspan x="0" dy="0">(Scratch Edition)</tspan></text><path d="M187.00362,103.96706c0.32927,1.73369 3.27146,9.72016 2.9755,11.42114c-1.41135,8.11162 -12.46209,9.14265 -23.32097,11.20502c-6.4454,1.22414 -13.29039,4.01561 -18.17609,1.65935c-5.07154,-2.44589 -8.08051,-10.15694 -9.04798,-15.2509c-0.24075,-1.26762 -0.33417,-2.35568 -0.28319,-3.31776c0.10641,-2.00843 -0.97447,-3.78151 0.36356,-5.17836c0.59743,-0.6237 3.13146,-0.92111 3.96669,-1.56327c0.73625,-0.56606 -1.42247,-3.00466 -0.50493,-3.64841c0.44475,-0.31203 3.89703,1.21185 4.38379,0.87121c0.69369,-0.48545 -0.01429,-3.016 0.4569,-4.15687c0.62514,-1.51363 2.43644,-1.74782 3.65675,-2.91872c0.94322,-0.90502 2.72175,-0.01369 4.05401,-0.38377c1.7113,-0.47537 3.00715,-2.09381 4.25187,-2.3302c0.52194,-0.09913 1.90573,3.45225 2.99765,3.34158c1.1282,-0.11435 1.9624,-3.88927 2.32548,-3.89588c1.07264,-0.01949 2.49418,-2.68697 3.52943,-2.59599c1.34286,0.11801 2.28475,3.03123 3.54292,3.32425c1.1668,0.27174 2.72867,0.07064 3.3655,1.02819c1.2301,1.84959 2.48172,3.1958 3.68618,4.25812c0.87422,0.77105 4.5301,-0.01895 5.32836,0.53687c1.37162,0.95505 -0.21416,3.12774 0.72243,4.12079c0.82838,0.87833 1.43449,1.93802 1.72613,3.4736z" fill="url(#color-16)" stroke="#000000" stroke-width="2" stroke-linecap="butt"/></g></g></svg>